<svg width="40" height="36" viewBox="0 0 40 36" fill="none" xmlns="http://www.w3.org/2000/svg">
<path d="M2 6L38 6M24 16L28 20L24 24M16 24L12 20L16 16M2 27.6V8.40002C2 6.15982 2 5.03973 2.43597 4.18408C2.81947 3.43143 3.43095 2.81947 4.18359 2.43597C5.03924 2 6.16018 2 8.40039 2H31.6004C33.8406 2 34.9599 2 35.8156 2.43597C36.5682 2.81947 37.181 3.43143 37.5645 4.18408C38.0004 5.03973 38 6.15981 38 8.40002V27.6C38 29.8402 38.0004 30.9603 37.5645 31.8159C37.181 32.5686 36.5682 33.1806 35.8156 33.5641C34.9599 34.0001 33.8406 34 31.6004 34L8.40039 34C6.16018 34 5.03924 34.0001 4.18359 33.5641C3.43095 33.1806 2.81947 32.5686 2.43597 31.8159C2 30.9603 2 29.8402 2 27.6Z" stroke="#66DD8D" stroke-width="4" stroke-linecap="round" stroke-linejoin="round"/>
</svg>
