<svg xmlns="http://www.w3.org/2000/svg" xmlns:xlink="http://www.w3.org/1999/xlink"><defs><symbol fill="none" viewBox="0 0 12 12" id="icon_facebook"><path d="M6.93 12V6.527h1.836l.275-2.134H6.93V3.03c0-.618.171-1.039 1.058-1.039h1.129V.084A15.307 15.307 0 0 0 7.47 0C5.841 0 4.726.994 4.726 2.82v1.573H2.884v2.134h1.842V12H6.93Z" fill="#fff" /></symbol><symbol fill="none" viewBox="0 0 12 12" id="icon_instagram"><g clip-path="url(#icon_instagram_a)"><path d="M9 0H3C1.35 0 0 1.35 0 3v6c0 1.65 1.35 3 3 3h6c1.65 0 3-1.35 3-3V3c0-1.65-1.35-3-3-3ZM6 8.5a2.5 2.5 0 1 1 0-5 2.5 2.5 0 0 1 0 5Zm3.25-5a.75.75 0 1 1 0-1.5.75.75 0 0 1 0 1.5Z" fill="#fff" /></g><defs></defs></symbol><clipPath id="icon_instagram_a"><path fill="#fff" d="M0 0h12v12H0z" /></clipPath><symbol fill="none" viewBox="0 0 13 13" id="icon_linkedin"><g clip-path="url(#icon_linkedin_a)" fill="#fff"><path d="M2.233 1.11C1.408 1.11.87 1.65.87 2.362c0 .696.523 1.253 1.333 1.253h.015c.842 0 1.365-.557 1.365-1.253-.016-.712-.523-1.254-1.349-1.254ZM1.012 4.607h2.411v7.256H1.012V4.607ZM9.343 4.437c-1.301 0-2.173 1.222-2.173 1.222V4.607H4.758v7.256h2.411V7.81c0-.217.016-.434.08-.589.174-.433.57-.882 1.237-.882.873 0 1.222.666 1.222 1.641v3.882h2.411v-4.16c0-2.23-1.19-3.266-2.776-3.266Z" /></g><defs></defs></symbol><clipPath id="icon_linkedin_a"><path fill="#fff" transform="translate(.5 .5)" d="M0 0h12v12H0z" /></clipPath><symbol fill="none" viewBox="0 0 13 13" id="icon_telegram"><g clip-path="url(#icon_telegram_a)"><path d="m5.209 8.09-.199 2.793c.284 0 .407-.122.555-.269l1.331-1.273 2.76 2.021c.505.282.862.133.998-.466l1.811-8.486c.161-.748-.27-1.04-.763-.857L1.057 5.628c-.726.282-.715.687-.123.871l2.721.846L9.977 3.39c.297-.197.568-.088.345.109L5.21 8.09Z" fill="#fff" /></g><defs></defs></symbol><clipPath id="icon_telegram_a"><path fill="#fff" transform="translate(.5 .5)" d="M0 0h12v12H0z" /></clipPath><symbol fill="none" viewBox="0 0 24 24" id="icon_twitter"><g clip-path="url(#icon_twitter_a)"><path d="M24 4.559c-.892.391-1.843.65-2.835.776a4.893 4.893 0 0 0 2.165-2.719 9.833 9.833 0 0 1-3.12 1.191 4.919 4.919 0 0 0-8.511 3.365c0 .39.033.764.114 1.121-4.091-.199-7.71-2.16-10.142-5.146a4.954 4.954 0 0 0-.673 2.487c0 1.704.877 3.214 2.185 4.089A4.859 4.859 0 0 1 .96 9.117v.054a4.943 4.943 0 0 0 3.942 4.835c-.4.109-.837.162-1.29.162a4.35 4.35 0 0 1-.932-.084c.638 1.948 2.447 3.38 4.598 3.427a9.886 9.886 0 0 1-6.1 2.099c-.404 0-.791-.018-1.178-.068a13.852 13.852 0 0 0 7.548 2.208c9.054 0 14.004-7.5 14.004-14.001 0-.217-.008-.427-.018-.636A9.816 9.816 0 0 0 24 4.559Z" fill="#fff" /></g><defs></defs></symbol><clipPath id="icon_twitter_a"><path fill="#fff" d="M0 0h24v24H0z" /></clipPath><symbol fill="none" viewBox="0 0 13 13" id="icon_whatsapp"><g clip-path="url(#icon_whatsapp_a)"><path d="M6.502.5h-.003A6.005 6.005 0 0 0 .5 6.5c0 1.313.423 2.529 1.142 3.517l-.747 2.229 2.306-.738c.948.629 2.08.992 3.3.992a6.006 6.006 0 0 0 5.999-6c0-3.308-2.69-6-5.998-6Zm3.49 8.473c-.144.409-.719.747-1.177.846-.313.067-.723.12-2.101-.451-1.764-.73-2.899-2.522-2.988-2.639-.084-.116-.712-.948-.712-1.81 0-.86.437-1.28.614-1.46.144-.147.383-.215.613-.215.074 0 .141.004.201.007.176.008.265.018.381.296.145.349.497 1.21.54 1.299.042.088.085.208.025.324-.056.12-.106.173-.194.276-.089.102-.173.18-.261.289-.082.095-.173.197-.071.373.102.173.454.748.973 1.21.67.597 1.213.787 1.407.868.145.06.318.046.423-.067.135-.144.3-.385.47-.62.12-.17.27-.191.43-.131.162.056 1.019.48 1.195.567.177.089.293.131.335.205.042.074.042.423-.102.833Z" fill="#fff" /></g><defs></defs></symbol><clipPath id="icon_whatsapp_a"><path fill="#fff" transform="translate(.5 .5)" d="M0 0h12v12H0z" /></clipPath></defs></svg>