<svg width="13" height="13" viewBox="0 0 13 13" fill="none" xmlns="http://www.w3.org/2000/svg">
<g clip-path="url(#clip0_132_2770)">
<path d="M2.23344 1.10938C1.4085 1.10938 0.869141 1.65107 0.869141 2.36305C0.869141 3.05931 1.39243 3.61646 2.20178 3.61646H2.21744C3.05851 3.61646 3.58194 3.05931 3.58194 2.36305C3.56622 1.65107 3.05851 1.10938 2.23344 1.10938Z" fill="white"/>
<path d="M1.01172 4.60706H3.42336V11.8626H1.01172V4.60706Z" fill="white"/>
<path d="M9.34289 4.43677C8.0419 4.43677 7.16952 5.65927 7.16952 5.65927V4.60706H4.75781V11.8626H7.16938V7.81081C7.16938 7.59389 7.1851 7.37733 7.24883 7.22221C7.42316 6.78908 7.81991 6.34035 8.48616 6.34035C9.35882 6.34035 9.70784 7.00571 9.70784 7.98109V11.8626H12.1193V7.70238C12.1193 5.47381 10.9295 4.43677 9.34289 4.43677Z" fill="white"/>
</g>
<defs>
<clipPath id="clip0_132_2770">
<rect width="12" height="12" fill="white" transform="translate(0.5 0.5)"/>
</clipPath>
</defs>
</svg>
