<svg width="13" height="13" viewBox="0 0 13 13" fill="none" xmlns="http://www.w3.org/2000/svg">
<g clip-path="url(#clip0_132_2742)">
<path d="M6.5015 0.5H6.4985C3.19025 0.5 0.5 3.191 0.5 6.5C0.5 7.8125 0.923 9.029 1.64225 10.0168L0.8945 12.2458L3.20075 11.5085C4.1495 12.137 5.28125 12.5 6.5015 12.5C9.80975 12.5 12.5 9.80825 12.5 6.5C12.5 3.19175 9.80975 0.5 6.5015 0.5ZM9.99275 8.97275C9.848 9.3815 9.2735 9.7205 8.81525 9.8195C8.50175 9.88625 8.09225 9.9395 6.71375 9.368C4.9505 8.6375 3.815 6.84575 3.7265 6.7295C3.64175 6.61325 3.014 5.78075 3.014 4.91975C3.014 4.05875 3.45125 3.6395 3.6275 3.4595C3.77225 3.31175 4.0115 3.24425 4.241 3.24425C4.31525 3.24425 4.382 3.248 4.442 3.251C4.61825 3.2585 4.70675 3.269 4.823 3.54725C4.96775 3.896 5.32025 4.757 5.36225 4.8455C5.405 4.934 5.44775 5.054 5.38775 5.17025C5.3315 5.29025 5.282 5.3435 5.1935 5.4455C5.105 5.5475 5.021 5.6255 4.9325 5.735C4.8515 5.83025 4.76 5.93225 4.862 6.1085C4.964 6.281 5.3165 6.85625 5.8355 7.31825C6.50525 7.9145 7.04825 8.105 7.2425 8.186C7.38725 8.246 7.55975 8.23175 7.6655 8.11925C7.79975 7.9745 7.9655 7.7345 8.13425 7.49825C8.25425 7.32875 8.40575 7.30775 8.56475 7.36775C8.72675 7.424 9.584 7.84775 9.76025 7.9355C9.9365 8.024 10.0527 8.066 10.0955 8.14025C10.1375 8.2145 10.1375 8.56325 9.99275 8.97275Z" fill="white"/>
</g>
<defs>
<clipPath id="clip0_132_2742">
<rect width="12" height="12" fill="white" transform="translate(0.5 0.5)"/>
</clipPath>
</defs>
</svg>
